HIERARCHY
ROOT Hips
{
  OFFSET 5.84602e-005 68.8428 3.50346
  CHANNELS 6 Xposition Yposition Zposition Zrotation Xrotation Yrotation
  JOINT Spine
  {
    OFFSET 0 8.597 -4.6522
    CHANNELS 3 Zrotation Xrotation Yrotation
    JOINT Spine1
    {
      OFFSET 0 7.8454 0.4098
      CHANNELS 3 Zrotation Xrotation Yrotation
      JOINT Spine2
      {
        OFFSET 0 9.7078 -2.1609
        CHANNELS 3 Zrotation Xrotation Yrotation
        JOINT Neck
        {
          OFFSET 0 21.8761 -0.4549
          CHANNELS 3 Zrotation Xrotation Yrotation
          JOINT Head
          {
            OFFSET 0 12.3537 3.3602
            CHANNELS 3 Zrotation Xrotation Yrotation
            End Site
            {
              OFFSET 0.0001 18.9506 0.5657
            }
          }
        }
        JOINT LeftShoulder
        {
          OFFSET 2.2086 21.1115 7.2329
          CHANNELS 3 Zrotation Xrotation Yrotation
          JOINT LeftArm
          {
            OFFSET 13.1193 3.0282 -4.8998
            CHANNELS 3 Zrotation Xrotation Yrotation
            JOINT LeftForeArm
            {
              OFFSET 27.4081 -0.0973053 -0.2375
              CHANNELS 3 Zrotation Xrotation Yrotation
              JOINT LeftHand
              {
                OFFSET 22.8641 0.0662994 -0.1369
                CHANNELS 3 Zrotation Xrotation Yrotation
                JOINT LeftHandIndex1
                {
                  OFFSET 8.8614 0.775009 2.4612
                  CHANNELS 3 Zrotation Xrotation Yrotation
                  JOINT LeftHandIndex2
                  {
                    OFFSET 3.3146 -0.808304 0.5841
                    CHANNELS 3 Zrotation Xrotation Yrotation
                    JOINT LeftHandIndex3
                    {
                      OFFSET 2.2628 -0.552002 0.3989
                      CHANNELS 3 Zrotation Xrotation Yrotation
                      End Site
                      {
                        OFFSET 1.6102 -0.4807 0.2612
                      }
                    }
                  }
                }
                JOINT LeftHandMiddle1
                {
                  OFFSET 8.9937 0.895004 0.2143
                  CHANNELS 3 Zrotation Xrotation Yrotation
                  JOINT LeftHandMiddle2
                  {
                    OFFSET 4.0984 0.0113983 -0.0242
                    CHANNELS 3 Zrotation Xrotation Yrotation
                    JOINT LeftHandMiddle3
                    {
                      OFFSET 2.2716 0.00689697 -0.0138001
                      CHANNELS 3 Zrotation Xrotation Yrotation
                      End Site
                      {
                        OFFSET 2.0404 -0.1441 0.0027
                      }
                    }
                  }
                }
                JOINT LeftHandRing1
                {
                  OFFSET 8.5234 0.597198 -2.0164
                  CHANNELS 3 Zrotation Xrotation Yrotation
                  JOINT LeftHandRing2
                  {
                    OFFSET 3.7188 -0.188293 -0.2328
                    CHANNELS 3 Zrotation Xrotation Yrotation
                    JOINT LeftHandRing3
                    {
                      OFFSET 2.1191 -0.106598 -0.1332
                      CHANNELS 3 Zrotation Xrotation Yrotation
                      End Site
                      {
                        OFFSET 1.8737 -0.2304 -0.0886
                      }
                    }
                  }
                }
                JOINT LeftHandPinky1
                {
                  OFFSET 7.9094 -0.601089 -3.4825
                  CHANNELS 3 Zrotation Xrotation Yrotation
                  JOINT LeftHandPinky2
                  {
                    OFFSET 2.2874 -0.477005 -0.6314
                    CHANNELS 3 Zrotation Xrotation Yrotation
                    JOINT LeftHandPinky3
                    {
                      OFFSET 1.6774 -0.349396 -0.4633
                      CHANNELS 3 Zrotation Xrotation Yrotation
                      End Site
                      {
                        OFFSET 1.4888 -0.4091 -0.3416
                      }
                    }
                  }
                }
                JOINT LeftHandThumb1
                {
                  OFFSET 1.833 -1.3875 1.3896
                  CHANNELS 3 Zrotation Xrotation Yrotation
                  JOINT LeftHandThumb2
                  {
                    OFFSET 3.4129 -1.121 2.5732
                    CHANNELS 3 Zrotation Xrotation Yrotation
                    JOINT LeftHandThumb3
                    {
                      OFFSET 2.2474 -0.804199 1.6192
                      CHANNELS 3 Zrotation Xrotation Yrotation
                      End Site
                      {
                        OFFSET 1.6527 -0.5689 1.1317
                      }
                    }
                  }
                }
              }
            }
          }
        }
        JOINT RightShoulder
        {
          OFFSET -2.2086 21.1115 7.2329
          CHANNELS 3 Zrotation Xrotation Yrotation
          JOINT RightArm
          {
            OFFSET -13.1216 3.0287 -4.9007
            CHANNELS 3 Zrotation Xrotation Yrotation
            JOINT RightForeArm
            {
              OFFSET -27.4081 -0.0973053 -0.2375
              CHANNELS 3 Zrotation Xrotation Yrotation
              JOINT RightHand
              {
                OFFSET -22.8641 0.0664063 -0.1369
                CHANNELS 3 Zrotation Xrotation Yrotation
                JOINT RightHandIndex1
                {
                  OFFSET -8.8614 0.774994 2.4612
                  CHANNELS 3 Zrotation Xrotation Yrotation
                  JOINT RightHandIndex2
                  {
                    OFFSET -3.3146 -0.808304 0.5841
                    CHANNELS 3 Zrotation Xrotation Yrotation
                    JOINT RightHandIndex3
                    {
                      OFFSET -2.2628 -0.552002 0.3989
                      CHANNELS 3 Zrotation Xrotation Yrotation
                      End Site
                      {
                        OFFSET -1.6102 -0.4807 0.2612
                      }
                    }
                  }
                }
                JOINT RightHandMiddle1
                {
                  OFFSET -8.9937 0.894989 0.2143
                  CHANNELS 3 Zrotation Xrotation Yrotation
                  JOINT RightHandMiddle2
                  {
                    OFFSET -4.0984 0.0113983 -0.0242
                    CHANNELS 3 Zrotation Xrotation Yrotation
                    JOINT RightHandMiddle3
                    {
                      OFFSET -2.2716 0.00691223 -0.0138001
                      CHANNELS 3 Zrotation Xrotation Yrotation
                      End Site
                      {
                        OFFSET -2.0404 -0.1441 0.0027
                      }
                    }
                  }
                }
                JOINT RightHandRing1
                {
                  OFFSET -8.5234 0.597198 -2.0164
                  CHANNELS 3 Zrotation Xrotation Yrotation
                  JOINT RightHandRing2
                  {
                    OFFSET -3.7188 -0.188309 -0.2328
                    CHANNELS 3 Zrotation Xrotation Yrotation
                    JOINT RightHandRing3
                    {
                      OFFSET -2.1191 -0.106598 -0.1332
                      CHANNELS 3 Zrotation Xrotation Yrotation
                      End Site
                      {
                        OFFSET -1.8737 -0.2304 -0.0886
                      }
                    }
                  }
                }
                JOINT RightHandPinky1
                {
                  OFFSET -7.9094 -0.601105 -3.4825
                  CHANNELS 3 Zrotation Xrotation Yrotation
                  JOINT RightHandPinky2
                  {
                    OFFSET -2.2874 -0.477005 -0.6314
                    CHANNELS 3 Zrotation Xrotation Yrotation
                    JOINT RightHandPinky3
                    {
                      OFFSET -1.6774 -0.349396 -0.4633
                      CHANNELS 3 Zrotation Xrotation Yrotation
                      End Site
                      {
                        OFFSET -1.4888 -0.4091 -0.3416
                      }
                    }
                  }
                }
                JOINT RightHandThumb1
                {
                  OFFSET -1.833 -1.38751 1.3896
                  CHANNELS 3 Zrotation Xrotation Yrotation
                  JOINT RightHandThumb2
                  {
                    OFFSET -3.41299 -1.12099 2.5732
                    CHANNELS 3 Zrotation Xrotation Yrotation
                    JOINT RightHandThumb3
                    {
                      OFFSET -2.24741 -0.804108 1.6192
                      CHANNELS 3 Zrotation Xrotation Yrotation
                      End Site
                      {
                        OFFSET -1.6527 -0.5689 1.1317
                      }
                    }
                  }
                }
              }
            }
          }
        }
      }
    }
  }
  JOINT RightUpLeg
  {
    OFFSET -9.1966 3.8861 -0.7581
    CHANNELS 3 Zrotation Xrotation Yrotation
    JOINT RightLeg
    {
      OFFSET -0.7359 -41.0265 0
      CHANNELS 3 Zrotation Xrotation Yrotation
      JOINT RightFoot
      {
        OFFSET 0 -40.2855 0
        CHANNELS 3 Zrotation Xrotation Yrotation
        JOINT RightToeBase
        {
          OFFSET 0 -5.6122 11.7359
          CHANNELS 3 Zrotation Xrotation Yrotation
          End Site
          {
            OFFSET 0 0 7.8731
          }
        }
      }
    }
  }
  JOINT LeftUpLeg
  {
    OFFSET 9.1965 3.8864 -0.7581
    CHANNELS 3 Zrotation Xrotation Yrotation
    JOINT LeftLeg
    {
      OFFSET 0.7359 -41.0268 0
      CHANNELS 3 Zrotation Xrotation Yrotation
      JOINT LeftFoot
      {
        OFFSET 0 -40.2855 0
        CHANNELS 3 Zrotation Xrotation Yrotation
        JOINT LeftToeBase
        {
          OFFSET 0 -5.6122 11.7359
          CHANNELS 3 Zrotation Xrotation Yrotation
          End Site
          {
            OFFSET 0 0 7.8731
          }
        }
      }
    }
  }
}
MOTION
Frames:	4
Frame Time:	0.0333333
-6.49865 19.965 -7.40305 -0 -11.3099 -0 -0.0551478 4.06776 3.07698 -0.331051 8.12699 6.1813 -0.33105 8.12699 6.1813 -12.7901 -20.0797 -4.45856 -13.3218 -25.9018 7.14591 27.5763 10.9882 -77.2433 -35.4169 -15.8737 -11.4767 -56.3316 -24.6153 -90.6536 -26.76 39.8603 3.29689 8.59401e-007 -2.87912e-007 -5.62726e-007 6.87521e-007 -2.3033e-007 -4.5018e-007 6.36111e-015 0 -3.18055e-015 8.59401e-007 -2.87912e-007 -5.62726e-007 -0.0145644 -8.77264e-005 -4.19256e-006 -6.46056e-008 1.6798e-006 -9.75856e-007 8.59401e-007 -2.87912e-007 -5.62726e-007 -0.018784 -0.00117932 5.80918e-005 -6.40419e-008 1.67998e-006 -9.75802e-007 8.59401e-007 -2.87912e-007 -5.62726e-007 -0.0121897 -0.00323406 0.000678422 -6.36111e-015 -3.18055e-015 1.59028e-015 8.59401e-007 -2.87912e-007 -5.62726e-007 6.87521e-007 -2.3033e-007 -4.5018e-007 6.36111e-015 0 -3.18055e-015 6.82842 -16.02 14.7243 67.0849 2.46464 18.7522 -14.698 -5.60992 34.856 62.2082 14.3146 -11.0968 -4.77083e-015 -1.59028e-015 -1.88845e-015 1.59028e-015 -2.38542e-015 -4.27387e-015 2.23454e-031 -2.38542e-015 5.36719e-015 -4.77083e-015 -1.59028e-015 -1.88845e-015 0.0150366 -9.34329e-005 -2.94161e-007 -3.18055e-015 0 -4.96962e-015 -4.77083e-015 -1.59028e-015 -1.88845e-015 0.0189407 -0.00119253 -6.35953e-005 -1.59028e-015 -1.11319e-014 -4.47266e-015 -4.77083e-015 -1.59028e-015 -1.88845e-015 0.0122308 -0.00323446 -0.000676164 1.59028e-015 1.59028e-015 5.86415e-015 -4.77083e-015 -1.59028e-015 -1.88845e-015 1.59028e-015 -2.38542e-015 -4.27387e-015 2.23454e-031 -2.38542e-015 5.36719e-015 -82.9741 -36.4901 -100.834 -162.037 52.6377 150.786 11.2387 -33.3002 18.3244 -2.6633e-006 -2.2455e-007 8.43407e-008 27.4204 -2.80988 -26.9428 -167.25 74.5398 -178.616 16.0966 44.8163 -43.3246 1.45357e-006 -4.62893e-008 -9.55036e-007 
-6.49728 20.1045 -7.62124 -0 -10.1184 -0 -0.10034 3.70305 3.08318 -0.401861 7.39519 6.19231 -0.401862 7.39519 6.19231 -12.7743 -19.8876 -4.41223 -13.353 -25.7276 7.06051 27.8488 11.9913 -77.6574 -35.5339 -15.83 -11.4929 -56.3316 -24.6153 -90.6536 -26.6228 40.4188 3.14588 -1.71816e-007 5.773e-008 1.12565e-007 -1.71816e-007 5.773e-008 1.12565e-007 -1.71816e-007 5.773e-008 1.12565e-007 -1.71816e-007 5.773e-008 1.12565e-007 -0.0145771 -9.17367e-005 -6.02915e-007 -1.71816e-007 5.77157e-008 1.12572e-007 -1.71816e-007 5.773e-008 1.12565e-007 -0.0187288 -0.00117108 6.10297e-005 -1.71816e-007 5.77117e-008 1.12576e-007 -1.71816e-007 5.773e-008 1.12565e-007 -0.0122772 -0.0032513 0.000677985 -1.71813e-007 5.77188e-008 1.12576e-007 -1.71816e-007 5.773e-008 1.12565e-007 -1.71816e-007 5.773e-008 1.12565e-007 -1.71816e-007 5.773e-008 1.12565e-007 7.29591 -14.8741 14.6517 67.0849 2.46464 18.7522 -14.698 -5.60992 34.856 61.9098 14.8783 -10.9298 1.11946e-006 6.23313e-007 -1.0768e-006 1.11946e-006 6.23313e-007 -1.0768e-006 1.11946e-006 6.23313e-007 -1.0768e-006 1.11946e-006 6.23313e-007 -1.0768e-006 0.0149878 -9.55473e-005 -5.47504e-006 1.11942e-006 6.23173e-007 -1.07688e-006 1.11946e-006 6.23313e-007 -1.0768e-006 0.0189702 -0.00119051 -6.32249e-005 1.11939e-006 6.23139e-007 -1.07691e-006 1.11946e-006 6.23313e-007 -1.0768e-006 0.0122211 -0.00323778 -0.000677376 1.11939e-006 6.23215e-007 -1.0769e-006 1.11946e-006 6.23313e-007 -1.0768e-006 1.11946e-006 6.23313e-007 -1.0768e-006 1.11946e-006 6.23313e-007 -1.0768e-006 -83.5738 -37.0498 -101.963 -161.941 52.9729 150.73 11.3586 -33.1829 17.9964 -3.18055e-015 -1.59028e-015 3.18055e-015 26.7776 -3.85534 -26.8231 -167.265 74.5224 -178.605 15.2978 45.3114 -42.836 2.14945e-006 -3.45132e-007 1.03652e-006 
-6.49579 20.2467 -7.84128 -0 -8.92737 -0 -0.145292 3.3383 3.0886 -0.472136 6.66412 6.20146 -0.472137 6.66412 6.20146 -12.7588 -19.6957 -4.36595 -13.3839 -25.5534 6.97529 28.1297 12.9921 -78.0778 -35.6508 -15.7863 -11.509 -56.3316 -24.6153 -90.6536 -26.4825 40.977 2.99187 -1.37401e-006 4.63009e-007 9.00688e-007 -2.06101e-006 6.94513e-007 1.35103e-006 -1.37401e-006 4.63009e-007 9.00688e-007 -1.37401e-006 4.63009e-007 9.00688e-007 -0.0145924 -8.94705e-005 1.8044e-006 -1.37401e-006 4.62894e-007 9.00748e-007 -1.37401e-006 4.63009e-007 9.00688e-007 -0.0187632 -0.00117902 6.16615e-005 -1.37401e-006 4.62861e-007 9.00778e-007 -1.37401e-006 4.63009e-007 9.00688e-007 -0.012248 -0.00324456 0.000679006 -1.48005e-006 2.37783e-006 4.23681e-008 -1.37401e-006 4.63009e-007 9.00688e-007 -2.06101e-006 6.94513e-007 1.35103e-006 -1.37401e-006 4.63009e-007 9.00688e-007 7.7623 -13.7294 14.5699 67.0849 2.46465 18.7522 -14.698 -5.60993 34.8559 61.609 15.441 -10.7594 1.59028e-015 7.95139e-016 -5.86415e-015 3.18055e-015 7.95139e-016 -2.38542e-015 6.73121e-031 3.18055e-015 -1.21259e-014 1.59028e-015 7.95139e-016 -5.86415e-015 0.0149565 -9.20186e-005 3.31729e-006 -4.77083e-015 -7.95139e-016 2.98177e-016 1.59028e-015 7.95139e-016 -5.86415e-015 0.0190157 -0.00119268 -6.2061e-005 1.59028e-015 -1.59028e-015 7.05686e-015 1.59028e-015 7.95139e-016 -5.86415e-015 0.0122531 -0.00324545 -0.000669743 1.59028e-015 -4.37326e-015 9.24349e-015 1.59028e-015 7.95139e-016 -5.86415e-015 3.18055e-015 7.95139e-016 -2.38542e-015 6.73121e-031 3.18055e-015 -1.21259e-014 -84.1926 -37.5987 -103.109 -161.844 53.3078 150.672 11.4793 -33.0658 17.6685 -1.3598e-006 2.8874e-008 -3.14756e-006 26.1359 -4.9021 -26.7156 -167.281 74.5047 -178.593 14.4856 45.8017 -42.3331 -4.88597e-007 -3.06703e-006 -1.27432e-006 
-6.49419 20.3918 -8.06308 -0 -7.73714 -0 -0.190057 2.97439 3.09318 -0.541883 5.93413 6.20877 -0.541883 5.93413 6.20878 -12.7431 -19.5036 -4.31981 -13.4146 -25.379 6.89029 28.4192 13.9903 -78.5048 -35.7677 -15.7425 -11.525 -56.3317 -24.6153 -90.6536 -26.3389 41.5348 2.8347 9.57309e-007 -2.20173e-006 2.91629e-007 3.43369e-007 -1.16041e-007 -2.2522e-007 9.54166e-015 1.59028e-015 -3.18055e-015 9.57309e-007 -2.20173e-006 2.91629e-007 -0.014612 -9.0674e-005 1.3167e-006 1.27222e-014 -3.18055e-015 -4.77083e-015 9.57309e-007 -2.20173e-006 2.91629e-007 -0.0187673 -0.00116703 5.65624e-005 -3.18055e-015 0 3.18055e-015 9.57309e-007 -2.20173e-006 2.91629e-007 -0.0122027 -0.00323081 0.000671746 -3.18055e-015 3.18055e-015 4.77083e-015 9.57309e-007 -2.20173e-006 2.91629e-007 3.43369e-007 -1.16041e-007 -2.2522e-007 9.54166e-015 1.59028e-015 -3.18055e-015 8.22786 -12.5861 14.479 67.0849 2.46463 18.7522 -14.698 -5.60993 34.856 61.3056 16.0028 -10.5855 1.12214e-006 6.19057e-007 -1.07638e-006 -2.48282e-032 -1.59028e-015 -8.94531e-016 9.15277e-008 5.6075e-007 -4.39703e-006 1.12214e-006 6.19057e-007 -1.07638e-006 0.014992 -9.37265e-005 -7.56578e-006 9.12735e-008 5.60176e-007 -4.3971e-006 1.12214e-006 6.19057e-007 -1.07638e-006 0.0190249 -0.00118924 -6.24998e-005 9.11638e-008 5.6004e-007 -4.39712e-006 1.12214e-006 6.19057e-007 -1.07638e-006 0.0122592 -0.00324588 -0.000683024 9.11949e-008 5.60334e-007 -4.39708e-006 1.12214e-006 6.19057e-007 -1.07638e-006 -2.48282e-032 -1.59028e-015 -8.94531e-016 9.15277e-008 5.6075e-007 -4.39703e-006 -84.8303 -38.1367 -104.27 -161.746 53.6427 150.613 11.6007 -32.9489 17.3406 -7.76625e-007 -3.33329e-007 6.23617e-008 25.4953 -5.94973 -26.6203 -167.296 74.4869 -178.581 13.6598 46.2869 -41.8157 -2.07705e-007 3.36576e-006 -7.18428e-007 
